# xmcd
# 
# Track frame offsets:
#     150
#     20022
#     37832
#     67397
# 
# Disc length: 1135
# 
# Revision: 5
# Processed by: cddbd v1.5.2PL0 Copyright (c) Steve Scherf et al.
# Submitted via: fre:ac v1.0.31
# 
DISCID=32046d04
DTITLE=Pantera - I'm Broken
DYEAR=1994
DGENRE=Metal
TTITLE0=I'm Broken
TTITLE1=Slaughtered
TTITLE2=Domination (Live from Moscow '91)
TTITLE3=Primal Concrete Sledge (Live from Moscow '91)
EXTD=YEAR: 1994
EXTT0=
EXTT1=
EXTT2=
EXTT3=
PLAYORDER=
